#!OML:ASF E:/inclinewalkrobotboard/Project1/Captureday1/Session1/subject1.ASF
:FULLY-SPECIFIED
:DEGREES
1
root 0 0 0 1.2500941505312015 -3.582319105953612 1.9040500867218149
lowerback 12.042822266468159 0.8472129160774168 -0.10995182516467605
upperback -4.404815013368904 1.0638375484660905 -0.6025072219396462
thorax -11.568133091930862 0.4863931721351572 -0.801565169541512
lowerneck -5.967485643282892 1.722384699673568 4.69903505806484
upperneck 18.388733912086064 3.2787272285726115 -8.466167192917002
head 6.731138586013321 1.2092372634955995 -3.252920457203829
rclavicle -5.88034536120791E-16 -2.1539599584174346E-15
rhumerus 20.713538320590217 14.758773132795612 -47.29618557282828
rradius 72.8133964732342
rwrist 27.42492078050065
rhand -34.528459316116354 -57.565954388738284
rfingers 7.12502000000002
rthumb -7.723942321281735 -87.50646017735102
lclavicle -2.3005733420890185E-15 3.5879929022633224E-16
lhumerus 21.856382222234366 -13.061935944230552 44.47711372938667
lradius 70.7165070618823
lwrist -22.483388811536905
lhand -45.0730737807988 -70.74294820187347
lfingers 7.125020000000016
lthumb -17.835347663471385 -41.79492698703815
rfemur -25.580463287393357 -2.392935889676954 16.870959275377952
rtibia 54.633285730653604
rfoot -31.1902344217301 -17.787106609991596
rtoes -18.93880761913901
lfemur -27.899765438820015 2.878973972864479 -18.412752373716096
ltibia 54.987260968577516
lfoot -33.053981489281 -3.672633760057935
ltoes -20.564488937827505
2
root 0 0 0 1.2562015017593575 -3.587149980691531 1.9023854513664382
lowerback 12.044267548969675 0.8476022623167988 -0.10851675295078067
upperback -4.408596816146228 1.0643488605771934 -0.6029346834359163
thorax -11.572932344828395 0.4867494345867208 -0.8026336423112814
lowerneck -5.963785000784744 1.7268388089617532 4.6996858666847965
upperneck 18.392207330550065 3.285015748352892 -8.467597345430054
head 6.731454946851889 1.2119085573348096 -3.2527978658632852
rclavicle -3.908690881346512E-16 -2.1216093033706113E-15
rhumerus 20.77555707244398 14.815988348182886 -47.288405572468434
rradius 72.86300419105639
rwrist 27.426354495553415
rhand -34.55294382424317 -57.64215250772289
rfingers 7.12502000000002
rthumb -7.74697287431869 -87.59576512290391
lclavicle -2.1914246356451024E-15 4.0635867251978986E-16
lhumerus 21.884522497347277 -13.058374588613306 44.45415533731285
lradius 70.73571568041682
lwrist -22.501289649341146
lhand -45.090756247406254 -70.82501656513963
lfingers 7.125020000000016
lthumb -17.852632614081667 -41.88019407292623
rfemur -25.63449372016057 -2.3736459210059238 16.87257500577831
rtibia 54.541944660524244
rfoot -31.302298000129447 -17.856620594049623
rtoes -18.960651903455172
lfemur -27.985773965865654 2.85685460440136 -18.377562859734415
ltibia 54.87706928714774
lfoot -33.18599500455055 -3.5690992433587536
ltoes -20.58708889498201
3
root 0 0 0 1.2578667989775858 -3.5903776971143353 1.9002776483115453
lowerback 12.043731899994244 0.8478973157285112 -0.107722995474407
upperback -4.409295532168997 1.0648742928090205 -0.6025293651862306
thorax -11.57331729408021 0.48701266289394396 -0.8027689044608606
lowerneck -5.962952407391195 1.727742837537434 4.699420504764959
upperneck 18.393230758533793 3.286312344915464 -8.467748941136236
head 6.731603843807867 1.2124238976616173 -3.252648160809347
rclavicle -3.869327856221044E-16 -2.0981416765936078E-15
rhumerus 20.78904220974559 14.832696783122783 -47.297630103484764
rradius 72.87672881757132
rwrist 27.415487039666225
rhand -34.55865483223542 -57.64955572282015
rfingers 7.12502000000002
rthumb -7.752021521862066 -87.60447126870932
lclavicle -2.234474806235189E-15 4.3169104255152014E-16
lhumerus 21.890874470795026 -13.064294669234007 44.45435930022991
lradius 70.74147144564743
lwrist -22.498248814591733
lhand -45.095073639795764 -70.83239466588495
lfingers 7.125020000000016
lthumb -17.856552071291766 -41.8886929989018
rfemur -25.631088760825186 -2.373974085553879 16.879378374538042
rtibia 54.52290565621091
rfoot -31.338718073985632 -17.85991317947009
rtoes -18.991075322510657
lfemur -28.004372687434504 2.840315685230321 -18.35039545749174
ltibia 54.805213898930575
lfoot -33.21553492769315 -3.529809890709993
ltoes -20.621127501367194
4
root 0 0 0 1.2584857450293958 -3.5916623090107773 1.8999137087848919
lowerback 12.043216894340695 0.84817567691862 -0.10765553728674981
upperback -4.409462657317915 1.0652002144665251 -0.602495380124573
thorax -11.573190324547525 0.4871910382726777 -0.8027749881229287
lowerneck -5.962246124886198 1.7281357904571324 4.69961782344986
upperneck 18.393531120392574 3.2868950639704053 -8.468216173385688
head 6.73155343426211 1.2126636561319777 -3.25274622462897
rclavicle -3.754691063835087E-16 -2.1102676307877718E-15
rhumerus 20.79216314801495 14.837181134942567 -47.29761041297351
rradius 72.87695252280534
rwrist 27.415107593139197
rhand -34.5578839062849 -57.65077773448383
rfingers 7.12502000000002
rthumb -7.751382148172604 -87.60707681395968
lclavicle -2.1999231149620722E-15 4.1904230948454377E-16
lhumerus 21.89040214247389 -13.060309358906835 44.452196126730605
lradius 70.7395648378889
lwrist -22.501143178903362
lhand -45.09580914398108 -70.83928353861725
lfingers 7.125020000000016
lthumb -17.857424070065324 -41.8959471676138
rfemur -25.623831508772 -2.369882174664376 16.87745750319263
rtibia 54.51630614925088
rfoot -31.344106906492865 -17.858482054993388
rtoes -19.02291846850477
lfemur -27.996044811887383 2.833288460735336 -18.34201182865554
ltibia 54.78515033795682
lfoot -33.22251177740148 -3.526574765994225
ltoes -20.648340218697072
